<?xml version="1.0" standalone="no"?>
<!DOCTYPE svg PUBLIC "-//W3C//DTD SVG 20010904//EN"
 "http://www.w3.org/TR/2001/REC-SVG-20010904/DTD/svg10.dtd">
<svg version="1.0" xmlns="http://www.w3.org/2000/svg"
 width="700.000000pt" height="700.000000pt" viewBox="0 0 700.000000 700.000000"
 preserveAspectRatio="xMidYMid meet">
<metadata>
Created by potrace 1.14, written by Peter Selinger 2001-2017
</metadata>
<g transform="translate(0.000000,700.000000) scale(0.100000,-0.100000)"
fill="#000000" stroke="none">
<path d="M790 6195 l0 -205 410 0 409 0 53 -24 c270 -121 477 -215 546 -247
46 -22 87 -39 92 -39 31 0 8 -28 -82 -99 -57 -44 -107 -84 -113 -89 -5 -4 -93
-74 -195 -155 -102 -81 -192 -153 -200 -160 -8 -7 -34 -27 -58 -45 l-42 -34 0
-2133 0 -2133 -397 -1 c-219 0 -404 -1 -410 -1 -10 0 -13 -48 -13 -204 l0
-204 1878 3 c1032 1 1902 5 1932 9 69 9 228 34 255 40 176 39 323 89 471 161
107 52 294 169 294 183 0 4 12 15 28 24 36 22 159 147 224 230 266 335 381
838 292 1276 -124 609 -603 1032 -1328 1175 -88 17 -152 33 -141 35 60 9 232
58 315 89 505 188 837 550 926 1009 21 110 27 340 10 439 -7 42 -15 86 -21
113 -3 12 -7 30 -9 40 -23 103 -88 261 -149 364 -82 137 -191 264 -315 366
-215 178 -520 317 -807 368 -16 3 -48 9 -70 14 -22 5 -67 12 -100 15 -33 4
-69 10 -80 13 -11 4 -827 8 -1812 9 l-1793 4 0 -206z m3423 -238 c43 -15 103
-43 134 -63 54 -34 163 -136 163 -152 0 -5 8 -17 18 -28 63 -69 140 -287 167
-472 26 -177 26 -514 1 -662 -3 -14 -7 -38 -10 -55 -19 -124 -75 -291 -132
-393 -128 -233 -316 -371 -577 -421 -94 -19 -147 -20 -664 -21 l-563 0 0 1150
0 1151 693 -3 692 -3 78 -28z m43 -2590 c61 -11 158 -49 209 -82 238 -152 405
-538 440 -1015 5 -73 6 -346 1 -400 -7 -71 -16 -146 -21 -170 -3 -14 -10 -50
-15 -80 -34 -171 -132 -390 -227 -505 -116 -141 -295 -245 -468 -272 -22 -3
-350 -7 -730 -7 l-690 -1 -3 1260 c-1 693 0 1265 2 1271 4 11 1439 12 1502 1z"/>
</g>
</svg>
