<svg id="Linescans" xmlns="http://www.w3.org/2000/svg" viewBox="0 0 122.88 22.13"><defs><style>.cls-1{fill:#aa151c;}.cls-2{fill:#69ace5;}.cls-3{fill:#fff;}</style></defs><title>Artboard 1</title><path class="cls-1" d="M.38.35H4.89A5.79,5.79,0,0,1,9,1.78a4.86,4.86,0,0,1,1.52,3.7A4.73,4.73,0,0,1,9,9.22a6.44,6.44,0,0,1-4.4,1.36H.38ZM2.93,2.23V8.71H4.59a3.28,3.28,0,0,0,2.48-.89,3.24,3.24,0,0,0,.86-2.35,3.21,3.21,0,0,0-.87-2.38,3.38,3.38,0,0,0-2.49-.87Z"/><path class="cls-1" d="M20,8.71v1.87H12.45V.35h7.44V2.23H15V4.37h4.67V6.25H15V8.71Z"/><path class="cls-1" d="M31.59.35,26.86,10.71H25.75L20.8.35h2.78L26.28,6.2,28.84.35Z"/><path class="cls-1" d="M32.73.35H37.3a3.42,3.42,0,0,1,2.42.86,2.73,2.73,0,0,1,.93,2.08,2.65,2.65,0,0,1-1.76,2.5,3.6,3.6,0,0,1,1.46,1.89q.69,1.54,1.34,2.9H38.9q-.25-.51-.87-1.93A5.94,5.94,0,0,0,37,6.83a1.39,1.39,0,0,0-.95-.4h-.73v4.15H32.73Zm2.55,1.88V4.56h1.35a1.58,1.58,0,0,0,1-.3A1,1,0,0,0,38,3.38q0-1.16-1.46-1.16Z"/><path class="cls-1" d="M50.45,8.71v1.87H42.91V.35h7.44V2.23H45.46V4.37h4.67V6.25H45.46V8.71Z"/><path class="cls-1" d="M57.83.22A5.81,5.81,0,0,1,62.06,1.8a5,5,0,0,1,1.62,3.67A4.92,4.92,0,0,1,62,9.15a6.51,6.51,0,0,1-8.44,0,5,5,0,0,1,0-7.37A5.84,5.84,0,0,1,57.83.22Zm0,8.37a3.21,3.21,0,0,0,2.34-.86,3,3,0,0,0,.89-2.26,3,3,0,0,0-.89-2.26,3.63,3.63,0,0,0-4.68,0,3,3,0,0,0-.89,2.26,3,3,0,0,0,.89,2.26A3.23,3.23,0,0,0,57.83,8.59Z"/><path class="cls-1" d="M73.79.35V2.23H70.08v8.36H67.53V2.23H63.83V.35Z"/><path class="cls-1" d="M82.91,8.71v1.87H75.37V.35h7.44V2.23H77.92V4.37h4.67V6.25H77.92V8.71Z"/><path class="cls-1" d="M91.81,1V3a8.54,8.54,0,0,0-3.24-.92,2.22,2.22,0,0,0-1.1.23.69.69,0,0,0-.41.61.75.75,0,0,0,.29.56,5.25,5.25,0,0,0,1.43.68A15.48,15.48,0,0,1,90.6,5a3.53,3.53,0,0,1,1.18,1,2.65,2.65,0,0,1,.49,1.65,2.72,2.72,0,0,1-1.08,2.26,4.5,4.5,0,0,1-2.85.84,7.53,7.53,0,0,1-3.69-1V7.52a10,10,0,0,0,1.82,1,4.49,4.49,0,0,0,1.68.31q1.5,0,1.5-.94a.84.84,0,0,0-.3-.61,4.78,4.78,0,0,0-1.45-.7,14.66,14.66,0,0,1-1.82-.76,3.42,3.42,0,0,1-1.16-1,2.72,2.72,0,0,1-.49-1.67A2.55,2.55,0,0,1,85.5,1,4.57,4.57,0,0,1,88.34.22,8.71,8.71,0,0,1,91.81,1Z"/><path class="cls-2" d="M98.08.35h1.46v8.9h4.61v1.33H98.08Z"/><path class="cls-2" d="M108.7.29h1l4.59,10.29h-1.5l-1.36-3h-4.37l-1.28,3H104.3Zm2.15,6L109.2,2.54l-1.53,3.71Z"/><path class="cls-2" d="M118.9,10.58h-3.46V.35h2.68a4.67,4.67,0,0,1,2,.34,2.53,2.53,0,0,1,1.08.94A2.55,2.55,0,0,1,121.55,3,2.23,2.23,0,0,1,120,5.17a3.16,3.16,0,0,1,1.78.92,2.4,2.4,0,0,1,.66,1.7,2.5,2.5,0,0,1-.4,1.4,2.93,2.93,0,0,1-1.18,1A4.36,4.36,0,0,1,118.9,10.58Zm-.74-8.93H116.9V4.73h1a2.47,2.47,0,0,0,1.67-.45A1.49,1.49,0,0,0,120,3.13Q120,1.65,118.16,1.65ZM118.27,6H116.9V9.28h1.44A4.71,4.71,0,0,0,120,9.09a1.55,1.55,0,0,0,.69-.58,1.52,1.52,0,0,0,.26-.85,1.45,1.45,0,0,0-.27-.86,1.62,1.62,0,0,0-.78-.58A4.88,4.88,0,0,0,118.27,6Z"/><rect class="cls-2" y="13.08" width="122.88" height="9.04"/><path class="cls-3" d="M4.42,14.38v.41l-.6,0v3.79a2.58,2.58,0,0,1-.12.91,2,2,0,0,1-.52.67,4.51,4.51,0,0,1-.41.3l-.25-.25L2.76,20a1.91,1.91,0,0,0,.39-.59,2.36,2.36,0,0,0,.1-.8V14.82l-.62,0v-.41Z"/><path class="cls-3" d="M6.66,19.49H6.29a1.6,1.6,0,0,1-1.15-.36A1.48,1.48,0,0,1,4.76,18v-.89A1.51,1.51,0,0,1,5.13,16a1.6,1.6,0,0,1,1.16-.36h.37A1.56,1.56,0,0,1,7.8,16a1.52,1.52,0,0,1,.37,1.12V18a1.49,1.49,0,0,1-.37,1.11A1.56,1.56,0,0,1,6.66,19.49Zm-.39-.42h.37q1,0,1-.92V17q0-.93-1-.93H6.28q-1,0-1,.93v1.16Q5.31,19.07,6.28,19.07Z"/><path class="cls-3" d="M12.47,16.62V19l.6,0v.39H11.92V16.9a1.25,1.25,0,0,0-.11-.64q-.11-.15-.48-.15h-.09a2.58,2.58,0,0,0-1.41.63V19l.55,0v.39H8.75V19l.55,0V14.8l-.5,0v-.39H9.84v2a5.72,5.72,0,0,1,.86-.55,1.78,1.78,0,0,1,.81-.19h.08a.91.91,0,0,1,.68.22A1.12,1.12,0,0,1,12.47,16.62Z"/><path class="cls-3" d="M17.18,16.62V19l.6,0v.39H16.63V16.9a1.25,1.25,0,0,0-.11-.64q-.11-.15-.48-.15H16a2.58,2.58,0,0,0-1.41.63V19l.55,0v.39H13.45V19L14,19V16.15l-.5,0v-.39h1.05v.66a5.72,5.72,0,0,1,.86-.55,1.78,1.78,0,0,1,.81-.19h.08a.91.91,0,0,1,.68.22A1.12,1.12,0,0,1,17.18,16.62Z"/><path class="cls-3" d="M18.31,16.69v-.13q0-.91,1.38-.91h.12a4.57,4.57,0,0,1,.72.07,2.77,2.77,0,0,1,.71.21v.79H20.8l-.05-.51a2.3,2.3,0,0,0-1-.18,1.51,1.51,0,0,0-.73.13.45.45,0,0,0-.23.42v.06A.39.39,0,0,0,19,17a4.18,4.18,0,0,0,.86.23l.21,0a2.86,2.86,0,0,1,1,.33.72.72,0,0,1,.26.63v.17a1,1,0,0,1-.32.82,1.59,1.59,0,0,1-1,.26h-.28a1.73,1.73,0,0,1-1.4-.43v-.73h.42l0,.45q.19.32,1,.32H20a1,1,0,0,0,.64-.16.63.63,0,0,0,.2-.53v-.1a.41.41,0,0,0-.22-.41,4.69,4.69,0,0,0-1-.25,2.75,2.75,0,0,1-1-.33A.73.73,0,0,1,18.31,16.69Z"/><path class="cls-3" d="M28.92,14.38v.41l-.63,0V19l.63,0v.41H27.16V19l.55,0V17.11H25V19l.53,0v.41H23.81V19l.65,0V14.82l-.65,0v-.41h1.75v.41l-.53,0v1.81h2.69V14.82l-.55,0v-.41Z"/><path class="cls-3" d="M31.42,19.49H31a1.6,1.6,0,0,1-1.15-.36A1.48,1.48,0,0,1,29.52,18v-.89A1.51,1.51,0,0,1,29.89,16,1.6,1.6,0,0,1,31,15.64h.37a1.56,1.56,0,0,1,1.14.36,1.52,1.52,0,0,1,.37,1.12V18a1.49,1.49,0,0,1-.37,1.11A1.56,1.56,0,0,1,31.42,19.49ZM31,19.07h.37q1,0,1-.92V17q0-.93-1-.93H31q-1,0-1,.93v1.16Q30.06,19.07,31,19.07Z"/><path class="cls-3" d="M36.08,15.64h.14a.86.86,0,0,1,.72.3,1.54,1.54,0,0,1,.24,1v1.39a1.3,1.3,0,0,1-.27.89,1,1,0,0,1-.75.3H36a2.53,2.53,0,0,1-.73-.09,4,4,0,0,1-.74-.35v1.19l.63,0v.39H33.46v-.39l.55,0V16.15l-.5,0v-.39h1.05v.52a4.61,4.61,0,0,1,.77-.46A1.86,1.86,0,0,1,36.08,15.64Zm.55,2.43v-1a1.39,1.39,0,0,0-.14-.73.56.56,0,0,0-.5-.22h-.12a1.69,1.69,0,0,0-.64.12,3.14,3.14,0,0,0-.67.4v2a2.93,2.93,0,0,0,.64.33,2,2,0,0,0,.62.08H36a.57.57,0,0,0,.51-.23A1.35,1.35,0,0,0,36.63,18.08Z"/><path class="cls-3" d="M38.84,14.38v2.84h1l.79-1.07h-.48v-.39h1.58v.39l-.52,0-1,1.27,1,1.58.48,0v.38H40.72V19l-.88-1.37h-1V19l.55,0v.39H37.75V19l.55,0V14.8l-.5,0v-.39Z"/><path class="cls-3" d="M43.38,15.73V19l.55,0v.39H42.28V19l.55,0V16.15l-.5,0v-.39ZM43.09,15a.36.36,0,0,1-.25-.09.28.28,0,0,1-.1-.22.29.29,0,0,1,.1-.23.36.36,0,0,1,.25-.09.35.35,0,0,1,.24.09.29.29,0,0,1,.1.23.29.29,0,0,1-.1.22A.35.35,0,0,1,43.09,15Z"/><path class="cls-3" d="M48.11,16.62V19l.6,0v.39H47.57V16.9a1.25,1.25,0,0,0-.11-.64q-.11-.15-.48-.15H46.9a2.58,2.58,0,0,0-1.41.63V19L46,19v.39H44.39V19l.55,0V16.15l-.5,0v-.39h1.05v.66a5.72,5.72,0,0,1,.86-.55,1.78,1.78,0,0,1,.81-.19h.08a.91.91,0,0,1,.68.22A1.12,1.12,0,0,1,48.11,16.62Z"/><path class="cls-3" d="M49.25,16.69v-.13q0-.91,1.38-.91h.12a4.57,4.57,0,0,1,.72.07,2.77,2.77,0,0,1,.71.21v.79h-.44l-.05-.51a2.3,2.3,0,0,0-1-.18,1.51,1.51,0,0,0-.73.13.45.45,0,0,0-.23.42v.06a.39.39,0,0,0,.18.38,4.18,4.18,0,0,0,.86.23l.21,0a2.86,2.86,0,0,1,1,.33.72.72,0,0,1,.26.63v.17a1,1,0,0,1-.32.82,1.59,1.59,0,0,1-1,.26h-.28a1.73,1.73,0,0,1-1.4-.43v-.73h.42l0,.45q.19.32,1,.32h.24a1,1,0,0,0,.64-.16.63.63,0,0,0,.2-.53v-.1a.41.41,0,0,0-.22-.41,4.69,4.69,0,0,0-1-.25,2.75,2.75,0,0,1-1-.33A.73.73,0,0,1,49.25,16.69Z"/><path class="cls-3" d="M55.44,17.94l.08.81a2.94,2.94,0,0,0,1.33.27h.09a1.53,1.53,0,0,0,.88-.18.78.78,0,0,0,.25-.66V18a.79.79,0,0,0-.15-.54,1.14,1.14,0,0,0-.58-.27l-1.45-.33a1.33,1.33,0,0,1-.72-.38,1.21,1.21,0,0,1-.19-.76v-.1a1.14,1.14,0,0,1,.39-1,2.14,2.14,0,0,1,1.27-.3h.15a4.49,4.49,0,0,1,1.71.34v1.16H58L58,15a2.73,2.73,0,0,0-1.18-.23h-.14a1.47,1.47,0,0,0-.84.18.7.7,0,0,0-.25.6v.09a.6.6,0,0,0,.56.69l1.57.36a1.33,1.33,0,0,1,.74.39,1.25,1.25,0,0,1,.21.79v.31a1.2,1.2,0,0,1-.38,1,2.13,2.13,0,0,1-1.29.3h-.19a4.12,4.12,0,0,1-.93-.09,4.28,4.28,0,0,1-.87-.32V17.94Z"/><path class="cls-3" d="M62.6,18.53v.39a1.4,1.4,0,0,1-.56.42,1.89,1.89,0,0,1-.75.15h-.38a1.22,1.22,0,0,1-1.4-1.39V17a1.33,1.33,0,0,1,.37-1,1.5,1.5,0,0,1,1.06-.35h.26a3.55,3.55,0,0,1,1.35.27v.92h-.41l-.06-.6A2.77,2.77,0,0,0,61,16.06q-1,0-1,1v1.06a.94.94,0,0,0,.24.71A1,1,0,0,0,61,19h.27a.88.88,0,0,0,.88-.44l0-.08Z"/><path class="cls-3" d="M66.88,16.62V19l.6,0v.39H66.33V16.9a1.25,1.25,0,0,0-.11-.64q-.11-.15-.48-.15h-.09a2.58,2.58,0,0,0-1.41.63V19l.55,0v.39H63.15V19l.55,0V14.8l-.5,0v-.39h1.05v2a5.72,5.72,0,0,1,.86-.55,1.78,1.78,0,0,1,.81-.19H66a.91.91,0,0,1,.68.22A1.12,1.12,0,0,1,66.88,16.62Z"/><path class="cls-3" d="M69.87,19.49H69.5a1.6,1.6,0,0,1-1.15-.36A1.48,1.48,0,0,1,68,18v-.89A1.51,1.51,0,0,1,68.34,16a1.6,1.6,0,0,1,1.16-.36h.37A1.56,1.56,0,0,1,71,16a1.52,1.52,0,0,1,.37,1.12V18A1.49,1.49,0,0,1,71,19.13,1.56,1.56,0,0,1,69.87,19.49Zm-.39-.42h.37q1,0,1-.92V17q0-.93-1-.93h-.37q-1,0-1,.93v1.16Q68.52,19.07,69.48,19.07Z"/><path class="cls-3" d="M74,19.49h-.37a1.6,1.6,0,0,1-1.15-.36A1.48,1.48,0,0,1,72.13,18v-.89A1.51,1.51,0,0,1,72.5,16a1.6,1.6,0,0,1,1.16-.36H74a1.56,1.56,0,0,1,1.14.36,1.52,1.52,0,0,1,.37,1.12V18a1.49,1.49,0,0,1-.37,1.11A1.56,1.56,0,0,1,74,19.49Zm-.39-.42H74q1,0,1-.92V17q0-.93-1-.93h-.37q-1,0-1,.93v1.16Q72.67,19.07,73.64,19.07Z"/><path class="cls-3" d="M77.2,14.38V19l.55,0v.39H76.11V19l.55,0V14.8l-.5,0v-.39Z"/><path class="cls-3" d="M82.1,19.49h-.37a1.6,1.6,0,0,1-1.15-.36A1.48,1.48,0,0,1,80.2,18v-.89A1.51,1.51,0,0,1,80.57,16a1.6,1.6,0,0,1,1.16-.36h.37a1.56,1.56,0,0,1,1.14.36,1.52,1.52,0,0,1,.37,1.12V18a1.49,1.49,0,0,1-.37,1.11A1.56,1.56,0,0,1,82.1,19.49Zm-.39-.42h.37q1,0,1-.92V17q0-.93-1-.93h-.37q-1,0-1,.93v1.16Q80.74,19.07,81.71,19.07Z"/><path class="cls-3" d="M85.38,16.13V19L86,19v.39H84.29V19l.27,0,.28,0V16.13h-.56v-.36l.28,0h.28V15.3a.86.86,0,0,1,.69-1l.79-.13.05.37-.63.15a.42.42,0,0,0-.29.21,1,1,0,0,0-.07.43v.35H86.5v.4Z"/><path class="cls-3" d="M95,14.38v.41l-.64,0V19L95,19v.41H93.27V19l.54,0v-3.9L92,19.42h-.4L90,15.08V19l.55,0v.41H88.77V19l.64,0V14.83l-.65,0v-.41h1.4l1.68,4.19h0l1.74-4.19Z"/><path class="cls-3" d="M97.15,15.64h.24q1.46,0,1.46,1.38v.8H96.14v.35q0,.91,1,.91h.31a.89.89,0,0,0,.88-.42l0-.09h.42v.36a1.24,1.24,0,0,1-.56.42,2,2,0,0,1-.77.14h-.29A1.6,1.6,0,0,1,96,19.13,1.51,1.51,0,0,1,95.6,18v-.92A1.4,1.4,0,0,1,96,16,1.62,1.62,0,0,1,97.15,15.64Zm1.2,1.79v-.49a.87.87,0,0,0-.26-.68,1,1,0,0,0-.72-.23h-.22a1,1,0,0,0-.74.25.92.92,0,0,0-.27.71v.44Z"/><path class="cls-3" d="M102.76,14.38V19l.55,0v.39h-1.09v-.58a4.31,4.31,0,0,1-.75.49,1.68,1.68,0,0,1-.74.15h-.13q-1,0-1-1.26V16.85a1.31,1.31,0,0,1,.27-.89,1,1,0,0,1,.75-.31h.14a2.47,2.47,0,0,1,.71.08,4.38,4.38,0,0,1,.75.36V14.77l-.6,0v-.35ZM100.84,19H101a1.5,1.5,0,0,0,.61-.12,3.44,3.44,0,0,0,.64-.4v-2a3.5,3.5,0,0,0-.66-.31,2.28,2.28,0,0,0-.6-.06h-.14q-.68,0-.68.89v1.08a1.22,1.22,0,0,0,.17.72A.62.62,0,0,0,100.84,19Z"/><path class="cls-3" d="M104.9,15.73V19l.55,0v.39h-1.64V19l.55,0V16.15l-.5,0v-.39Zm-.29-.71a.36.36,0,0,1-.25-.09.28.28,0,0,1-.1-.22.29.29,0,0,1,.1-.23.36.36,0,0,1,.25-.09.35.35,0,0,1,.24.09.29.29,0,0,1,.1.23.29.29,0,0,1-.1.22A.35.35,0,0,1,104.61,15Z"/><path class="cls-3" d="M109.08,18.53v.39a1.4,1.4,0,0,1-.56.42,1.89,1.89,0,0,1-.75.15h-.38A1.22,1.22,0,0,1,106,18.1V17a1.33,1.33,0,0,1,.37-1,1.5,1.5,0,0,1,1.06-.35h.26a3.55,3.55,0,0,1,1.35.27v.92h-.41l-.06-.6a2.77,2.77,0,0,0-1.07-.18q-1,0-1,1v1.06a.94.94,0,0,0,.24.71,1,1,0,0,0,.71.22h.27a.88.88,0,0,0,.88-.44l0-.08Z"/><path class="cls-3" d="M110.83,15.73V19l.55,0v.39h-1.64V19l.55,0V16.15l-.5,0v-.39Zm-.29-.71a.36.36,0,0,1-.25-.09.28.28,0,0,1-.1-.22.29.29,0,0,1,.1-.23.36.36,0,0,1,.25-.09.35.35,0,0,1,.24.09.29.29,0,0,1,.1.23.29.29,0,0,1-.1.22A.35.35,0,0,1,110.54,15Z"/><path class="cls-3" d="M115.57,16.62V19l.6,0v.39H115V16.9a1.25,1.25,0,0,0-.11-.64q-.11-.15-.48-.15h-.09a2.58,2.58,0,0,0-1.41.63V19l.55,0v.39h-1.64V19l.55,0V16.15l-.5,0v-.39h1.05v.66a5.72,5.72,0,0,1,.86-.55,1.78,1.78,0,0,1,.81-.19h.08a.91.91,0,0,1,.68.22A1.12,1.12,0,0,1,115.57,16.62Z"/><path class="cls-3" d="M118.21,15.64h.24q1.46,0,1.46,1.38v.8H117.2v.35q0,.91,1,.91h.31a.89.89,0,0,0,.88-.42l0-.09h.42v.36a1.24,1.24,0,0,1-.56.42,2,2,0,0,1-.77.14h-.29a1.6,1.6,0,0,1-1.16-.36,1.51,1.51,0,0,1-.36-1.12v-.92a1.4,1.4,0,0,1,.4-1.08A1.62,1.62,0,0,1,118.21,15.64Zm1.2,1.79v-.49a.87.87,0,0,0-.26-.68,1,1,0,0,0-.72-.23h-.22a1,1,0,0,0-.74.25.92.92,0,0,0-.27.71v.44Z"/></svg>